<?xml version="1.0" standalone="no"?>
<!DOCTYPE svg PUBLIC "-//W3C//DTD SVG 20010904//EN"
 "http://www.w3.org/TR/2001/REC-SVG-20010904/DTD/svg10.dtd">
<svg version="1.0" xmlns="http://www.w3.org/2000/svg"
 width="260.000000pt" height="260.000000pt" viewBox="0 0 260.000000 260.000000"
 preserveAspectRatio="xMidYMid meet">
<metadata>
Created by potrace 1.11, written by Peter Selinger 2001-2013
</metadata>
<g transform="translate(0.000000,260.000000) scale(0.100000,-0.100000)"
fill="#000000" stroke="none">
<path d="M1190 2109 c-379 -31 -660 -350 -645 -729 2 -47 6 -98 10 -114 48
-227 215 -427 426 -510 84 -33 129 -43 219 -51 69 -6 90 -14 265 -102 105 -52
194 -99 199 -104 20 -18 68 -7 252 60 222 81 241 89 248 107 4 9 -48 40 -165
99 -145 73 -216 110 -251 132 -4 2 15 32 44 66 28 34 68 98 89 142 127 275 76
579 -134 794 -147 151 -350 227 -557 210z m395 -409 c17 -19 19 -45 18 -371 0
-192 -3 -352 -6 -355 -6 -7 -427 -164 -438 -164 -4 0 -6 169 -6 375 2 367 2
375 23 396 26 25 316 137 360 138 19 1 38 -7 49 -19z"/>
</g>
</svg>
