<svg id="レイヤー_1" data-name="レイヤー 1" xmlns="http://www.w3.org/2000/svg" viewBox="0 0 200 200"><defs><style>.cls-1{fill:#009688;}</style></defs><path class="cls-1" d="M194.75,172.93,144.9,147.46a.07.07,0,0,1,0-.12A83.06,83.06,0,0,0,170,95.69C175.15,44.85,132.94,1,82,4.16a83.27,83.27,0,0,0,5.26,166.38h0a11.91,11.91,0,0,1,5.43,1.31l4.54,2.32,41.13,21c2.61,1.26,3.79.9,6.88.13l49.26-18.17A2.3,2.3,0,0,0,194.75,172.93ZM60.42,78,36.8,86.42A3,3,0,0,1,33,84.6l-1-2.74a3,3,0,0,1,1.81-3.8l23.61-8.37a3,3,0,0,1,3.79,1.8l1,2.75A3,3,0,0,1,60.42,78Zm2.74-23.54L61.51,56.9a3,3,0,0,1-4.13.77L36.71,43.51a3,3,0,0,1-.77-4.13L37.58,37a3,3,0,0,1,4.13-.78L62.38,50.36A3,3,0,0,1,63.16,54.49Zm9.27-9.91L64.05,21a3,3,0,0,1,1.81-3.8l2.74-1A3,3,0,0,1,72.4,18l8.37,23.62a3,3,0,0,1-1.8,3.8l-2.76,1A3,3,0,0,1,72.43,44.58Zm57,94.47L75.84,158.87,76,76.28c0-6.46,1.37-10.23,7.16-13l33.36-12.32c6.42-2.19,13.11-.12,13.11,5.89Zm-12.58-48c-3.81,1.42-6.9,6.55-6.91,11.48s3.07,7.78,6.88,6.38,6.9-6.54,6.91-11.48S120.71,89.67,116.9,91.07Z"/></svg>