<svg id="レイヤー_1" data-name="レイヤー 1" xmlns="http://www.w3.org/2000/svg" viewBox="0 0 593.37 255.88"><defs><style>.cls-1{fill:#009688;}</style></defs><path class="cls-1" d="M277,85.75h13.18l-7.36,52.19,23.4-21.87h16.92l-26,24,20.11,28.79H299.75L282.5,141.89h-.22l-3.73,26.92H265.36Z"/><path class="cls-1" d="M331.72,116.07h12.52L343,124.53h.22a22.62,22.62,0,0,1,6.7-6.86,19,19,0,0,1,10.88-2.91,19.22,19.22,0,0,1,8.73,1.75,13.53,13.53,0,0,1,5.33,4.62,15.21,15.21,0,0,1,2.31,6.59,31.47,31.47,0,0,1-.11,7.8l-4.62,33.29H359.29l3.74-26.7a44.74,44.74,0,0,0,.43-4.89,17.31,17.31,0,0,0-.49-5.05,7.89,7.89,0,0,0-2.36-4,7.47,7.47,0,0,0-5.16-1.59,13.77,13.77,0,0,0-5.72,1.1,12.47,12.47,0,0,0-4.12,3,15.21,15.21,0,0,0-2.74,4.28,18.37,18.37,0,0,0-1.38,5.05l-3.95,28.79H324.36Z"/><path class="cls-1" d="M388.4,142.44a31.07,31.07,0,0,1,3.85-11.37,31.93,31.93,0,0,1,7.36-8.73,32.74,32.74,0,0,1,9.94-5.61,34.17,34.17,0,0,1,11.48-2,29.21,29.21,0,0,1,10.88,2,22.46,22.46,0,0,1,8.29,5.61,22.08,22.08,0,0,1,4.89,8.73,26.6,26.6,0,0,1,.66,11.37,30.94,30.94,0,0,1-3.85,11.37,31.8,31.8,0,0,1-17.19,14.34,33.89,33.89,0,0,1-11.48,2,29.43,29.43,0,0,1-10.93-2,22.47,22.47,0,0,1-8.35-5.6,22,22,0,0,1-4.89-8.74A26.58,26.58,0,0,1,388.4,142.44Zm13.19,0a16.1,16.1,0,0,0,.21,5.93,12.83,12.83,0,0,0,2.37,5.06,12.33,12.33,0,0,0,4.39,3.51,14.21,14.21,0,0,0,6.32,1.32,16.79,16.79,0,0,0,6.7-1.32,17.94,17.94,0,0,0,9.12-8.57,19.5,19.5,0,0,0,1.87-5.93,16.1,16.1,0,0,0-.22-5.93,12.79,12.79,0,0,0-2.37-5,12.25,12.25,0,0,0-4.39-3.52,14.21,14.21,0,0,0-6.32-1.32,16.4,16.4,0,0,0-6.64,1.32,18.11,18.11,0,0,0-5.33,3.52,19,19,0,0,0-3.79,5A18.32,18.32,0,0,0,401.59,142.44Z"/><path class="cls-1" d="M539.13,168.81H493.87a46.17,46.17,0,0,1-16.48-2.8,32.7,32.7,0,0,1-12.31-8,30.84,30.84,0,0,1-7.14-12.75,40.39,40.39,0,0,1-.88-17,42,42,0,0,1,5.5-15.77,46.9,46.9,0,0,1,10.65-12.41A49.53,49.53,0,0,1,487.38,92a45.86,45.86,0,0,1,16.15-2.91A39.43,39.43,0,0,1,518.86,92a33.9,33.9,0,0,1,11.86,8.13,31.3,31.3,0,0,1,7.09,12.41,36.37,36.37,0,0,1,1,15.77,38.32,38.32,0,0,1-8,19.06,33.73,33.73,0,0,1-6.1,6,50.89,50.89,0,0,1-6.32,4.06v.22h22.31Zm-37.68-67.24a28.66,28.66,0,0,0-10.72,2,29.44,29.44,0,0,0-9.06,5.65,33,33,0,0,0-6.65,8.57,31,31,0,0,0-3.46,10.77,27.74,27.74,0,0,0,.44,11,22.87,22.87,0,0,0,4.29,8.79,20.41,20.41,0,0,0,7.47,5.77A24,24,0,0,0,494,156.28a28.77,28.77,0,0,0,10.88-2.08,30.57,30.57,0,0,0,15.93-14.56,35.24,35.24,0,0,0,3.52-11,29.27,29.27,0,0,0-.44-10.77,21.1,21.1,0,0,0-4.23-8.57,20.57,20.57,0,0,0-7.64-5.65A25.81,25.81,0,0,0,501.45,101.57Z"/><path class="cls-1" d="M213.66,200.87,163.81,175.4a.08.08,0,0,1,0-.12A83.07,83.07,0,0,0,189,123.63c5.11-50.84-37.1-94.71-88.08-91.53a83.27,83.27,0,0,0,5.27,166.38h0a12,12,0,0,1,5.43,1.31l4.53,2.32,41.13,21c2.62,1.26,3.8.9,6.88.13l49.26-18.17A2.29,2.29,0,0,0,213.66,200.87ZM79.33,106l-23.61,8.38a3,3,0,0,1-3.79-1.81l-1-2.74a3,3,0,0,1,1.81-3.8l23.62-8.37a3,3,0,0,1,3.78,1.8l1,2.75A3,3,0,0,1,79.33,106Zm2.75-23.54-1.66,2.41a3,3,0,0,1-4.13.77L55.63,71.45a3,3,0,0,1-.78-4.13l1.65-2.4a3,3,0,0,1,4.12-.78L81.3,78.3A3,3,0,0,1,82.08,82.43Zm9.26-9.91L83,48.89a3,3,0,0,1,1.81-3.79l2.75-1a3,3,0,0,1,3.79,1.8l8.37,23.62a3,3,0,0,1-1.8,3.8l-2.75,1A3,3,0,0,1,91.34,72.52Zm57,94.47L94.76,186.81l.15-82.59c0-6.46,1.38-10.23,7.16-13l33.37-12.32c6.42-2.19,13.11-.12,13.11,5.89Zm-12.57-48c-3.82,1.42-6.9,6.55-6.91,11.48s3.06,7.78,6.87,6.38,6.9-6.55,6.91-11.48S139.62,117.61,135.82,119Z"/></svg>