<svg id="レイヤー_1" data-name="レイヤー 1" xmlns="http://www.w3.org/2000/svg" viewBox="0 0 288 96"><defs><style>.cls-1{fill:#009688;}</style></defs><path class="cls-1" d="M18,5.81H31.18L23.82,58l23.4-21.86H64.13l-26,23.94L58.2,88.87H40.73L23.49,62h-.22L19.53,88.87H6.35Z"/><path class="cls-1" d="M72.7,36.14H85.23L84,44.59h.22a22.51,22.51,0,0,1,6.7-6.86,18.94,18.94,0,0,1,10.88-2.91,19.25,19.25,0,0,1,8.73,1.75,13.61,13.61,0,0,1,5.33,4.62,15.07,15.07,0,0,1,2.3,6.59,30.53,30.53,0,0,1-.11,7.8l-4.61,33.29H100.28L104,62.17a44.6,44.6,0,0,0,.44-4.89,17.66,17.66,0,0,0-.49-5.05,8,8,0,0,0-2.36-4,7.49,7.49,0,0,0-5.17-1.59,13.72,13.72,0,0,0-5.71,1.1,12.37,12.37,0,0,0-4.12,3A15.24,15.24,0,0,0,83.85,55a18.71,18.71,0,0,0-1.37,5l-4,28.79H65.34Z"/><path class="cls-1" d="M129.39,62.5a31.06,31.06,0,0,1,3.84-11.37,32.11,32.11,0,0,1,7.36-8.73,32.79,32.79,0,0,1,9.95-5.61,34.08,34.08,0,0,1,11.48-2,29.16,29.16,0,0,1,10.87,2,22.5,22.5,0,0,1,8.3,5.61,22.08,22.08,0,0,1,4.89,8.73,26.6,26.6,0,0,1,.66,11.37,30.94,30.94,0,0,1-3.85,11.37A31.89,31.89,0,0,1,165.7,88.21a33.93,33.93,0,0,1-11.48,2,29.39,29.39,0,0,1-10.93-2,22.39,22.39,0,0,1-8.35-5.6,21.88,21.88,0,0,1-4.89-8.74A26.27,26.27,0,0,1,129.39,62.5Zm13.18,0a16.1,16.1,0,0,0,.22,5.93,13,13,0,0,0,2.36,5.06,12.37,12.37,0,0,0,4.4,3.51,14.17,14.17,0,0,0,6.31,1.32A16.88,16.88,0,0,0,162.57,77a17.87,17.87,0,0,0,9.11-8.57,19,19,0,0,0,1.87-5.93,16.1,16.1,0,0,0-.22-5.93,12.91,12.91,0,0,0-2.36-5A12.33,12.33,0,0,0,166.58,48a14.21,14.21,0,0,0-6.32-1.32A16.45,16.45,0,0,0,153.61,48a18.24,18.24,0,0,0-5.33,3.52,19.22,19.22,0,0,0-3.79,5A18.56,18.56,0,0,0,142.57,62.5Z"/><path class="cls-1" d="M280.11,88.87H234.85a46.21,46.21,0,0,1-16.48-2.8,32.58,32.58,0,0,1-12.3-8,30.62,30.62,0,0,1-7.14-12.75,40.23,40.23,0,0,1-.88-17,42,42,0,0,1,5.49-15.77A47.12,47.12,0,0,1,214.2,20.15,49.39,49.39,0,0,1,228.37,12a45.82,45.82,0,0,1,16.15-2.91A39.41,39.41,0,0,1,259.84,12a33.94,33.94,0,0,1,11.87,8.13,31.16,31.16,0,0,1,7.08,12.41,36.07,36.07,0,0,1,1,15.77,38.89,38.89,0,0,1-3,10.82,39.36,39.36,0,0,1-5,8.24,33.37,33.37,0,0,1-6.09,6,50.89,50.89,0,0,1-6.32,4.06v.22h22.3ZM242.43,21.63a28.65,28.65,0,0,0-10.71,2,29.21,29.21,0,0,0-9.06,5.65A32.77,32.77,0,0,0,216,37.89a30.61,30.61,0,0,0-3.46,10.77,27.55,27.55,0,0,0,.44,11,23,23,0,0,0,4.28,8.79,20.58,20.58,0,0,0,7.47,5.77A24.08,24.08,0,0,0,235,76.34a28.81,28.81,0,0,0,10.88-2.08A30.57,30.57,0,0,0,261.77,59.7a35.22,35.22,0,0,0,3.51-11,29.06,29.06,0,0,0-.44-10.77,20.85,20.85,0,0,0-4.23-8.57A20.54,20.54,0,0,0,253,23.67,25.86,25.86,0,0,0,242.43,21.63Z"/></svg>